<svg width="52" height="52" viewBox="0 0 52 52" fill="none" xmlns="http://www.w3.org/2000/svg">
<path d="M1.88045 29.2686H50.1191C50.5109 29.2686 50.8691 29.0307 51.0174 28.6665C51.1695 28.3013 51.0859 27.8827 50.8073 27.6051L40.8193 17.6161C40.5566 17.3524 40.1685 17.2608 39.8145 17.3837C39.4642 17.5046 39.2085 17.8139 39.1628 18.1831L39.0143 19.3597H12.8825L12.8437 18.2673C12.8323 17.8807 12.5885 17.5361 12.228 17.3954C11.8693 17.2576 11.4579 17.341 11.1833 17.6111L1.19422 27.5992C0.913667 27.8787 0.829999 28.2958 0.985667 28.6628C1.13016 29.0307 1.48793 29.2686 1.88045 29.2686ZM10.9936 20.5604C11.0936 20.9936 11.4805 21.3119 11.9413 21.3119H39.8753C40.3666 21.3119 40.7815 20.9467 40.8426 20.4593L40.8493 20.4024L47.7662 27.3174H4.23309L10.9936 20.5604Z" fill="black"/>
<path d="M13.039 15.9941H38.966C39.358 15.9941 39.7153 15.7562 39.8675 15.39C40.0169 15.0233 39.9323 14.6085 39.6547 14.3269L34.287 8.96123C34.0204 8.69458 33.6323 8.60694 33.2783 8.73182C32.925 8.85273 32.6732 9.16158 32.6318 9.53027L32.5968 9.76613H19.3866L19.3811 9.61791C19.3697 9.23036 19.1259 8.88724 18.7672 8.74672C18.4024 8.60495 17.995 8.69111 17.7199 8.96123L12.3528 14.3269C12.0717 14.6085 11.988 15.0253 12.1442 15.39C12.2882 15.7562 12.6447 15.9941 13.039 15.9941ZM17.8915 11.5463C18.0472 11.6555 18.2388 11.7173 18.4432 11.7173H33.457C33.6857 11.7173 33.8987 11.6371 34.0658 11.5068L36.6089 14.0469H15.3894L17.8915 11.5463Z" fill="black"/>
<path d="M51.026 41.3759H41.6725V32.1143C41.6725 31.577 41.2388 31.139 40.6976 31.139H11.2985C10.7627 31.139 10.324 31.577 10.324 32.1143V41.3761H0.974475C0.434231 41.3761 0 41.8099 0 42.3501C0 42.8864 0.43448 43.3243 0.974475 43.3243H51.026C51.5663 43.3243 52 42.8864 52 42.3501C52 41.8079 51.5663 41.3759 51.026 41.3759ZM12.2732 33.088H39.7236V41.3759H12.2732V33.088Z" fill="black"/>
</svg>
