<svg width="37" height="54" viewBox="0 0 37 54" fill="none" xmlns="http://www.w3.org/2000/svg">
<path d="M32.6836 30.121L33.5222 29.4924C36.8173 27.0227 37.7338 22.4801 35.6541 18.9257L29.6072 8.59185L27.9041 4.54361L30.4505 2.63513C31.0973 2.15022 31.2287 1.23275 30.7438 0.585889C30.259 -0.0609681 29.3415 -0.192236 28.6947 0.292555L25.2339 2.88666C24.6964 3.28948 24.5022 4.00648 24.7627 4.62558L26.5034 8.76293L0.824114 28.0108C0.413446 28.3185 0.194003 28.819 0.245761 29.3296C0.297519 29.8401 0.612867 30.2863 1.07693 30.5055L17.1569 38.1005L15.0516 39.6786C13.8265 38.5333 12.285 37.7883 10.59 37.5456C8.40395 37.2328 6.22649 37.7897 4.45935 39.1144C2.6922 40.439 1.54662 42.3724 1.23361 44.5586C0.920721 46.7447 1.47788 48.9219 2.80239 50.6891C4.1269 52.4562 6.06033 53.6018 8.24645 53.9148C8.64401 53.9717 9.04097 53.9998 9.43548 53.9998C11.2106 53.9998 12.9312 53.4298 14.377 52.346C16.1441 51.0214 17.2897 49.088 17.6027 46.9018C17.8453 45.2068 17.5626 43.5182 16.8071 42.021L30.341 31.8767L33.5441 36.1501C33.8316 36.5337 34.2713 36.7361 34.7165 36.7361C35.0219 36.7361 35.33 36.6408 35.5932 36.4435C36.2401 35.9587 36.3715 35.0412 35.8866 34.3943L32.6836 30.121ZM27.8608 11.4039L33.1274 20.4042C34.455 22.6732 33.87 25.5732 31.7664 27.1499L19.8065 36.1145L4.52387 28.8961L27.8608 11.4039ZM14.7048 46.4872C14.5026 47.8993 13.7628 49.1481 12.6213 50.0038C11.4799 50.8593 10.0743 51.2194 8.66145 51.017C7.24935 50.8149 6.00049 50.075 5.14496 48.9335C4.28932 47.792 3.92947 46.3858 4.1317 44.9737C4.33393 43.5616 5.07377 42.3127 6.21525 41.4571C7.14923 40.757 8.26039 40.3889 9.40714 40.3889C9.66183 40.3889 9.9184 40.407 10.1752 40.4438C11.0901 40.5747 11.9357 40.9327 12.6509 41.4781L8.54049 44.5591C7.89363 45.0439 7.76225 45.9614 8.24716 46.6083C8.53464 46.9919 8.97434 47.1942 9.41955 47.1942C9.72495 47.1942 10.033 47.0989 10.2963 46.9016L14.4068 43.8206C14.7294 44.6602 14.8358 45.5723 14.7048 46.4872Z" fill="black"/>
</svg>
