<svg width="52" height="52" viewBox="0 0 52 52" fill="none" xmlns="http://www.w3.org/2000/svg">
<path d="M9.77641 1.31226C9.77641 1.31226 3.17484 6.79663 3.17484 13.3982C3.17484 17.4932 6.13234 20.8123 9.77641 20.8123C13.4225 20.8123 16.378 17.4932 16.378 13.3982C16.378 6.79663 9.77641 1.31226 9.77641 1.31226ZM9.77641 18.4499C7.92594 18.4499 6.42484 16.764 6.42484 14.686C6.42484 11.3344 9.77641 8.5496 9.77641 8.5496C9.77641 8.5496 13.128 11.3344 13.128 14.686C13.128 16.764 11.6289 18.4499 9.77641 18.4499ZM50.5781 34.5313H42.9703C41.1344 30.7761 37.2759 28.1831 32.822 28.1831C28.368 28.1831 24.5095 30.7761 22.6736 34.5313H17.0117C15.6975 34.5313 14.625 33.4608 14.625 32.1446V29.6563H17.875V22.3438H1.625V29.6563H4.67188V32.1446C4.67188 39.4725 10.3088 44.4844 17.0117 44.4844H22.7098C24.5594 48.201 28.3963 50.762 32.822 50.762C37.2476 50.762 41.0845 48.201 42.9341 44.4844H50.5781V34.5313ZM40.7211 37.9844H37.3766C36.7486 36.069 34.9438 34.6816 32.8209 34.6816C32.5938 34.6816 32.3708 34.6987 32.1518 34.7294L30.4543 31.7893C31.203 31.5582 31.9981 31.4331 32.8217 31.4331C36.7463 31.4331 40.0209 34.2601 40.7211 37.9844ZM24.7825 39.4725C24.7825 37.0275 25.881 34.8356 27.6087 33.3599L29.2784 36.2518C28.5041 37.1033 28.0315 38.2341 28.0315 39.4733C28.0315 40.6169 28.4351 41.6683 29.1066 42.4932L27.4174 45.419C25.7995 43.9476 24.7825 41.8266 24.7825 39.4725ZM32.822 47.512C31.9089 47.512 31.032 47.3568 30.2134 47.0753L31.889 44.1733C32.1906 44.233 32.502 44.2651 32.8209 44.2651C34.8416 44.2651 36.5735 43.0069 37.2775 41.2344H40.6646C39.8588 44.8224 36.6496 47.512 32.822 47.512Z" fill="black"/>
</svg>
